<svg xmlns="http://www.w3.org/2000/svg" width="1440" height="1024" fill="none" viewBox="0 0 1440 1024">
  <g opacity=".5">
    <g opacity=".2">
      <ellipse cx="155.682" cy="181" fill="#5398E9" fill-opacity=".25" rx="257.682" ry="258"/>
      <g clip-path="url(#clip0_10:344)">
        <path fill="#5398E9" d="M305.735 29.235h-37.021c-5.032 0-9.104 4.077-9.104 9.115v9.115h-74.505c-3.771-10.587-13.781-18.23-25.634-18.23-11.852 0-21.863 7.643-25.633 18.23H59.333V38.35c0-5.038-4.072-9.115-9.104-9.115H13.208c-5.032 0-9.104 4.077-9.104 9.115v36.46c0 5.037 4.072 9.114 9.104 9.114h37.021c5.032 0 9.104-4.077 9.104-9.115v-9.236H96.72c-31.593 19.761-52.425 54.47-54.915 93.344-10.923 3.58-18.886 13.761-18.886 25.877 0 15.078 12.25 27.345 27.31 27.345 15.06 0 27.31-12.267 27.31-27.345 0-11.63-7.32-21.519-17.563-25.465 3.106-43.34 33.31-79.87 75.324-90.293 4.544 8.797 13.616 14.888 24.171 14.888 10.556 0 19.628-6.09 24.171-14.888 42.014 10.422 72.219 46.952 75.325 90.293-10.244 3.946-17.564 13.835-17.564 25.465 0 15.078 12.251 27.345 27.311 27.345 15.059 0 27.31-12.267 27.31-27.345 0-12.116-7.963-22.297-18.886-25.877-2.49-38.874-23.322-73.461-54.915-93.222h37.387v9.114c0 5.038 4.072 9.115 9.104 9.115h37.021c5.032 0 9.103-4.077 9.103-9.115V38.35c0-5.038-4.071-9.115-9.103-9.115zM221.406 329.048c-4.762-14.589-18.481-25.762-34.624-25.762h-54.621c-16.144 0-29.862 11.173-34.624 25.762-1.836 5.625 2.943 11.305 8.855 11.305h106.159c5.91 0 10.69-5.68 8.855-11.305z"/>
        <path fill="#5398E9" d="M239.873 216.198l-71.299-107.081v86.471c10.574 3.775 18.207 13.798 18.207 25.665 0 15.078-12.25 27.345-27.31 27.345-15.06 0-27.311-12.267-27.311-27.345 0-11.867 7.634-21.89 18.207-25.665v-86.471L79.069 216.198a9.12 9.12 0 001.138 11.5c16.712 16.733 27.394 38.289 31.517 61.412 6.324-2.568 13.202-4.053 20.436-4.053h54.621c7.235 0 14.113 1.484 20.437 4.052 4.122-23.124 14.805-44.678 31.517-61.411a9.119 9.119 0 001.138-11.5z"/>
        <path fill="#5398E9" d="M159.471 212.139c-5.023 0-9.103 4.085-9.103 9.114 0 5.029 4.08 9.115 9.103 9.115s9.104-4.086 9.104-9.115-4.081-9.114-9.104-9.114z"/>
      </g>
    </g>
    <g opacity=".2">
      <ellipse fill="#5398E9" fill-opacity=".25" rx="62.963" ry="62.959" transform="rotate(-46.46 1130.403 291.099) skewX(-.071)"/>
      <g clip-path="url(#clip1_10:344)">
        <path fill="#5398E9" d="M139.141 857.877l-6.231 6.558a2.226 2.226 0 00.078 3.146l1.611 1.534-12.541 13.197c-2.505-1.114-5.54-.627-7.535 1.472s-2.33 5.159-1.094 7.609l-12.541 13.196-1.61-1.534a2.219 2.219 0 00-3.143.079l-6.231 6.557a2.227 2.227 0 00.078 3.147l6.442 6.136a2.22 2.22 0 003.143-.078l6.231-6.557a2.227 2.227 0 00-.078-3.147l-1.632-1.555 6.293-6.622c-1.826 8.922.8 18.454 7.249 25.439-1.206 2.537-.747 5.661 1.394 7.7a6.67 6.67 0 009.428-.235 6.688 6.688 0 00-.235-9.439c-2.055-1.958-5.034-2.326-7.455-1.176-7.135-7.845-8.506-19.343-3.275-28.539 2.319.675 4.922.094 6.698-1.776 1.777-1.87 2.228-4.501 1.438-6.787 8.914-5.688 20.452-4.889 28.633 1.856-1.027 2.479-.512 5.44 1.543 7.397a6.67 6.67 0 009.428-.235c2.535-2.667 2.43-6.902-.235-9.439-2.14-2.04-5.28-2.343-7.751-1.011-7.287-6.102-16.905-8.234-25.714-5.964l6.293-6.622 1.61 1.534a2.22 2.22 0 003.143-.078l6.231-6.558a2.226 2.226 0 00-.078-3.146l-6.442-6.137a2.22 2.22 0 00-3.143.078zM177.921 923.278c-3.379-1.612-7.663-1.063-10.38 1.797l-9.194 9.674c-2.717 2.86-3.052 7.17-1.276 10.469.685 1.272 2.493 1.382 3.488.335l17.869-18.804c.995-1.047.796-2.85-.507-3.471z"/>
        <path fill="#5398E9" d="M161.09 901.012l-30.921-5.395 15.279 14.555c2.446-1.238 5.502-.903 7.599 1.095 2.664 2.538 2.769 6.772.234 9.44a6.67 6.67 0 01-9.428.235c-2.097-1.998-2.583-5.037-1.47-7.545l-15.278-14.555 6.919 30.652a2.223 2.223 0 002.223 1.735c5.77-.144 11.376 1.592 16.156 4.754a13.245 13.245 0 012.723-4.302l9.194-9.675a13.255 13.255 0 014.156-2.938c-3.392-4.622-5.402-10.142-5.546-15.919a2.223 2.223 0 00-1.84-2.137z"/>
        <path fill="#5398E9" d="M146.839 914.57c-.845.89-.81 2.3.079 3.147a2.222 2.222 0 003.142-.079c.846-.889.811-2.3-.078-3.146a2.222 2.222 0 00-3.143.078z"/>
      </g>
    </g>
    <g opacity=".2">
      <g clip-path="url(#clip2_10:344)">
        <path fill="#2BBC5D" d="M1385.38 805.25l-82.85-47.838c-13.99-8.079-31.37-8.078-45.36 0l-82.85 47.838c-14.01 8.093-22.72 23.187-22.72 39.39v95.602c0 16.203 8.71 31.297 22.72 39.39l82.85 47.838c13.99 8.08 31.38 8.08 45.36 0l82.85-47.838c14.02-8.093 22.73-23.187 22.73-39.39V844.64c0-16.203-8.71-31.296-22.73-39.39zm.71 134.992c0 8.346-4.49 16.121-11.71 20.29l-82.85 47.838c-7.2 4.16-16.16 4.16-23.36 0l-82.85-47.838c-7.22-4.17-11.7-11.944-11.7-20.29V844.64c0-8.346 4.48-16.121 11.7-20.289l82.85-47.839c7.21-4.162 16.16-4.16 23.37 0l82.84 47.838c7.22 4.169 11.71 11.944 11.71 20.29v95.602z"/>
        <path fill="#2BBC5D" d="M1269.39 884.025l-40.89-34.645c-4.64-3.933-11.59-3.354-15.51 1.294-3.93 4.648-3.35 11.604 1.29 15.537l30.96 26.23-30.96 26.23c-4.64 3.933-5.22 10.889-1.29 15.537 3.93 4.658 10.88 5.217 15.51 1.294l40.89-34.646c5.2-4.407 5.19-12.436 0-16.831zM1338.31 916.062h-49.53c-6.09 0-11.01 4.936-11.01 11.024 0 6.089 4.92 11.025 11.01 11.025h49.53c6.08 0 11.01-4.936 11.01-11.025 0-6.088-4.93-11.024-11.01-11.024z"/>
      </g>
      <ellipse cx="1283.29" cy="889" fill="#2BBC5D" fill-opacity=".15" rx="233.711" ry="234"/>
    </g>
    <g opacity=".2">
      <ellipse cx="1283.29" cy="152" fill="#BE49E8" fill-opacity=".25" rx="135.832" ry="136"/>
      <path fill="#BE49E8" d="M1356.95 72c-69.38 0-126.44 53.437-132.49 121.346 11.53-16.277 25.65-31.939 43.28-49.945a3.387 3.387 0 014.82-.047 3.414 3.414 0 01.05 4.831 877.143 877.143 0 00-8.06 8.357c-1.55 1.62-3.06 3.233-4.55 4.818-.27.294-.55.588-.82.888-21.78 23.356-37.36 43.685-48.67 68.934a3.426 3.426 0 001.71 4.517c.46.205.93.301 1.4.301 1.31 0 2.56-.752 3.12-2.016 4.03-8.985 8.7-17.322 13.96-25.434 47.66-1.223 91.05-27.77 113.79-70.014a3.442 3.442 0 00-.07-3.376 3.447 3.447 0 00-2.94-1.66h-12.64l22.67-12.97a3.415 3.415 0 001.53-1.852c4.86-14.145 7.32-28.7 7.32-43.261a3.416 3.416 0 00-3.41-3.417z"/>
    </g>
    <g opacity=".2">
      <ellipse fill="#BE49E8" fill-opacity=".25" rx="102.424" ry="101.119" transform="rotate(-39.049 1170.325 -170.61) skewX(-.069)"/>
      <g clip-path="url(#clip3_10:344)">
        <path fill="#BE49E8" d="M374.636 617.939c-40.626 32.955-49.05 90.948-20.829 133.072-.862-14.884.082-30.644 1.984-49.426a2.583 2.583 0 012.803-2.319 2.52 2.52 0 012.288 2.769c-.29 2.826-.555 5.73-.812 8.66-.15 1.672-.283 3.324-.412 4.947-.023.299-.045.599-.065.902-1.833 23.849-1.445 42.997 3.741 62.963a2.529 2.529 0 003.116 1.797c.364-.099.684-.267.96-.491a2.585 2.585 0 00.884-2.646c-1.845-7.107-3.007-14.146-3.723-21.331 27.341-23.35 40.331-59.304 33.89-94.523a2.524 2.524 0 00-1.622-1.915 2.599 2.599 0 00-2.496.434l-7.401 6.004 7.207-18.263a2.566 2.566 0 00.033-1.8c-3.77-10.484-9.139-20.064-15.95-28.48-.882-1.09-2.493-1.249-3.596-.354z"/>
      </g>
    </g>
    <g opacity=".2">
      <g clip-path="url(#clip4_10:344)">
        <path fill="#2BBC5D" d="M688.312 76.177l-24.87-22.187a15.846 15.846 0 00-15.47-3.215l-31.635 10.44a15.872 15.872 0 00-10.535 11.822l-6.76 32.603a15.889 15.889 0 004.964 15.043l24.87 22.187a15.844 15.844 0 0015.47 3.215l31.635-10.441a15.873 15.873 0 0010.535-11.822l6.76-32.602a15.89 15.89 0 00-4.964-15.043zm-9.305 46.085a8.175 8.175 0 01-5.426 6.089l-31.635 10.441a8.16 8.16 0 01-7.969-1.656l-24.87-22.187a8.186 8.186 0 01-2.557-7.749l6.76-32.602a8.178 8.178 0 015.427-6.089l31.635-10.441a8.163 8.163 0 017.969 1.656l24.869 22.187a8.182 8.182 0 012.557 7.749l-6.76 32.602z"/>
        <path fill="#2BBC5D" d="M643.186 94.818l-11.493-14.713a3.831 3.831 0 00-5.383-.658 3.844 3.844 0 00-.658 5.39l8.702 11.14-12.411 6.75a3.842 3.842 0 00-1.54 5.206 3.833 3.833 0 005.2 1.542l16.393-8.917c2.086-1.134 2.648-3.873 1.19-5.74zM664.425 110.629l-16.893-3.511a3.834 3.834 0 00-4.534 2.979 3.839 3.839 0 002.975 4.54l16.893 3.511a3.833 3.833 0 004.533-2.979 3.839 3.839 0 00-2.974-4.54z"/>
      </g>
      <ellipse fill="#2BBC5D" fill-opacity=".15" rx="81.404" ry="81.496" transform="rotate(11.743 -150.284 3197.386) skewX(.028)"/>
    </g>
    <g opacity=".2">
      <ellipse fill="#5398E9" fill-opacity=".25" rx="64.936" ry="64.984" transform="rotate(-26.898 1555.24 -2029.784) skewX(-.057)"/>
      <g clip-path="url(#clip5_10:344)">
        <path fill="#5398E9" d="M1103 432.786l-8.33 4.22a2.289 2.289 0 00-1 3.087l1.03 2.048-16.74 8.494c-2.05-1.949-5.17-2.526-7.84-1.174-2.66 1.351-4.04 4.21-3.68 7.019l-16.75 8.494-1.03-2.048a2.3 2.3 0 00-3.09-1.011l-8.32 4.221a2.3 2.3 0 00-1.01 3.086l4.15 8.194a2.287 2.287 0 003.08 1.01l8.32-4.22a2.3 2.3 0 001.01-3.087l-1.05-2.075 8.4-4.263c-4.85 8.043-5.58 18.218-1.72 27.239-2.05 2.05-2.68 5.246-1.3 7.969 1.71 3.388 5.86 4.748 9.24 3.031a6.891 6.891 0 003.03-9.258c-1.32-2.614-4.09-4.002-6.84-3.721-4.23-10.095-1.6-21.748 6.66-28.88 2.02 1.459 4.75 1.794 7.12.59 2.38-1.203 3.72-3.606 3.74-6.101 10.63-2.448 21.57 2.318 27.2 11.705-1.85 2.055-2.37 5.111-1.05 7.725 1.71 3.389 5.86 4.749 9.25 3.032 3.38-1.717 4.74-5.87 3.02-9.259-1.37-2.723-4.32-4.103-7.18-3.662-4.98-8.453-13.6-13.851-22.95-14.691l8.41-4.262 1.03 2.049a2.287 2.287 0 003.08 1.01l8.32-4.22a2.284 2.284 0 001.01-3.087l-4.14-8.194a2.29 2.29 0 00-3.08-1.01zM1118.14 509.779c-2.73-2.736-7.08-3.682-10.71-1.842l-12.28 6.227c-3.63 1.841-5.44 5.915-4.85 9.737.23 1.474 1.95 2.205 3.28 1.531l23.85-12.102c1.33-.674 1.76-2.496.71-3.551z"/>
        <path fill="#5398E9" d="M1109.46 482.312l-28.21-15.937 9.84 19.434c2.8-.357 5.66 1.025 7.01 3.692 1.71 3.389.36 7.542-3.03 9.259-3.38 1.717-7.53.357-9.25-3.032-1.35-2.667-.77-5.79 1.18-7.844l-9.84-19.433-3.84 32.194a2.293 2.293 0 001.56 2.455c5.66 1.855 10.51 5.482 14.07 10.208a13.62 13.62 0 014.13-3.241l12.27-6.227a13.716 13.716 0 015.06-1.419c-1.7-5.667-1.76-11.729.1-17.395a2.3 2.3 0 00-1.05-2.714z"/>
        <path fill="#5398E9" d="M1090.92 490.566a2.296 2.296 0 00-1 3.086 2.29 2.29 0 003.08 1.011 2.3 2.3 0 001.01-3.086 2.302 2.302 0 00-3.09-1.011z"/>
      </g>
    </g>
  </g>
  <defs>
    <clipPath id="clip0_10:344">
      <path fill="#fff" d="M0 0h310.734v311.118H0z" transform="translate(4.104 29.235)"/>
    </clipPath>
    <clipPath id="clip1_10:344">
      <path fill="#fff" d="M0 0h75.926v75.921H0z" transform="rotate(-46.46 1105.756 352.707) skewX(-.071)"/>
    </clipPath>
    <clipPath id="clip2_10:344">
      <path fill="#fff" d="M0 0h281.828v282.176H0z" transform="translate(1138.94 751.353)"/>
    </clipPath>
    <clipPath id="clip3_10:344">
      <path fill="#fff" d="M0 0h123.511v121.938H0z" transform="rotate(-39.049 1116.54 -56.016) skewX(-.069)"/>
    </clipPath>
    <clipPath id="clip4_10:344">
      <path fill="#fff" d="M0 0h98.163v98.274H0z" transform="rotate(11.743 107.955 2976.777) skewX(.028)"/>
    </clipPath>
    <clipPath id="clip5_10:344">
      <path fill="#fff" d="M0 0h78.305v78.363H0z" transform="rotate(-26.898 1494.397 -1930.895) skewX(-.057)"/>
    </clipPath>
  </defs>
</svg>
