<svg xmlns="http://www.w3.org/2000/svg" width="379" height="749" fill="none" viewBox="0 0 379 749">
  <path fill="#fff" d="M166.097 484.315c4.316-8.338 1.056-18.596-7.282-22.912-8.338-4.316-18.596-1.056-22.912 7.282l30.194 15.63zM19 731.5l-15.097-7.815c-3.916 7.565-1.629 16.859 5.35 21.743 6.979 4.884 16.495 3.849 22.26-2.421L19 731.5zm343-373l12.514 11.507a17 17 0 00-9.539-28.245L362 358.5zm-208.025-54.238c-9.244-1.643-18.07 4.519-19.713 13.763-1.643 9.244 4.519 18.07 13.763 19.713l5.95-33.476zm-18.072 164.423l-132 255 30.194 15.63 132-255-30.194-15.63zM31.513 743.007l343.001-373-25.027-23.014-343 373 25.026 23.014zm333.462-401.245l-211-37.5-5.95 33.476 211 37.5 5.95-33.476zM212.903 264.185c-4.316 8.338-1.056 18.596 7.282 22.912 8.338 4.316 18.596 1.056 22.912-7.282l-30.194-15.63zM360 17l15.097 7.815c3.916-7.565 1.629-16.86-5.35-21.743-6.979-4.884-16.495-3.85-22.26 2.421L360 17zM17 390L4.486 378.493a17 17 0 009.54 28.245L17 390zm208.025 54.238c9.244 1.643 18.07-4.519 19.713-13.763 1.643-9.244-4.519-18.07-13.763-19.713l-5.95 33.476zm18.072-164.423l132-255-30.194-15.63-132 255 30.194 15.63zM347.487 5.493l-343 373 25.026 23.014 343-373-25.026-23.014zM14.025 406.738l211 37.5 5.95-33.476-211-37.5-5.95 33.476z"/>
</svg>
