<svg xmlns="http://www.w3.org/2000/svg" width="252" height="142" fill="none" viewBox="0 0 252 142">
  <path fill="#515151" d="M90.535 62.58h4.252v17.224h-4.252V62.579zm5.939 10.72c0-4.26 2.608-6.801 6.634-6.801 4.025 0 6.634 2.541 6.634 6.801s-2.552 6.816-6.634 6.816c-4.083 0-6.634-2.485-6.634-6.816zm9.001 0c0-2.343-.921-3.72-2.367-3.72s-2.353 1.42-2.353 3.72c0 2.3.893 3.692 2.353 3.692 1.46 0 2.367-1.306 2.367-3.677V73.3zm5.868 7.342h4.083a2.196 2.196 0 002.296 1.278c1.616 0 2.466-.88 2.466-2.159v-2.385h-.085a4.023 4.023 0 01-3.869 2.329c-3.105 0-5.16-2.372-5.16-6.447 0-4.076 1.956-6.646 5.216-6.646a4.063 4.063 0 013.913 2.5V66.74h4.252v12.922c0 3.11-2.736 5.041-6.776 5.041-3.756 0-6.095-1.69-6.336-4.047v-.014zm8.86-7.356c0-2.073-.95-3.38-2.453-3.38-1.502 0-2.424 1.293-2.424 3.38 0 2.088.908 3.266 2.424 3.266 1.517 0 2.453-1.15 2.453-3.252v-.014zm5.854 0c0-4.26 2.608-6.802 6.634-6.802 4.025 0 6.648 2.542 6.648 6.802s-2.552 6.816-6.648 6.816c-4.097 0-6.634-2.47-6.634-6.802v-.014zm9.001 0c0-2.343-.922-3.72-2.367-3.72-1.446 0-2.283 1.434-2.283 3.749 0 2.314.893 3.692 2.339 3.692s2.311-1.321 2.311-3.692v-.029zm5.897-9.642c-.012-.43.105-.853.335-1.217a2.164 2.164 0 013.33-.41 2.171 2.171 0 01-.256 3.352 2.165 2.165 0 01-1.198.391 2.066 2.066 0 01-2.046-1.255 2.067 2.067 0 01-.165-.832v-.029zm0 3.124h4.252v13.036h-4.252V66.768zm19.688 6.518c0 4.26-1.885 6.688-5.117 6.688a4.058 4.058 0 01-3.969-2.414h-.085v6.419h-4.252V66.74h4.252v2.329h.085a4.073 4.073 0 013.941-2.514c3.26.057 5.202 2.5 5.202 6.76l-.057-.029zm-4.252 0c0-2.073-.95-3.394-2.438-3.394-1.489 0-2.438 1.335-2.452 3.394-.015 2.06.963 3.38 2.452 3.38 1.488 0 2.438-1.292 2.438-3.351v-.029zm11.552-6.816c3.53 0 5.67 1.676 5.77 4.36h-3.87c0-.923-.766-1.506-1.942-1.506-1.177 0-1.701.455-1.701 1.122 0 .668.468.88 1.417 1.08l2.722.553c2.594.554 3.7 1.605 3.7 3.579 0 2.698-2.453 4.43-6.067 4.43-3.615 0-5.982-1.732-6.166-4.388h4.096c.128.966.893 1.534 2.141 1.534 1.247 0 1.814-.412 1.814-1.094 0-.681-.397-.823-1.417-1.036l-2.453-.526c-2.537-.525-3.869-1.874-3.869-3.862.028-2.556 2.31-4.217 5.825-4.217v-.029zm20.285 13.306h-4.097v-2.429h-.085a3.705 3.705 0 01-3.771 2.713 4.513 4.513 0 01-3.495-1.362 4.527 4.527 0 01-1.267-3.537V66.74h4.252v7.44c0 1.549.794 2.372 2.112 2.372a2.169 2.169 0 002.155-2.456V66.74h4.252l-.056 13.036zm2.055-13.036h4.111v2.513h.085a3.775 3.775 0 013.699-2.754 3.394 3.394 0 013.615 2.84h.085a4.001 4.001 0 013.997-2.84 4.121 4.121 0 014.018 2.726c.197.545.277 1.126.235 1.704v8.875h-4.253v-7.739c0-1.42-.638-2.073-1.828-2.073a1.851 1.851 0 00-1.407.627 1.865 1.865 0 00-.45 1.474v7.711h-4.04v-7.796c0-1.306-.638-2.016-1.8-2.016a1.896 1.896 0 00-1.813 1.335c-.08.257-.105.528-.073.795v7.682h-4.252l.071-13.064zM78.642 63.36a18.82 18.82 0 00-2.835-4.572 19.185 19.185 0 00-6.273-5.029 19.152 19.152 0 00-22.368 3.828A19.242 19.242 0 0044.1 80.11a19.203 19.203 0 005.227 6.111 18.547 18.547 0 004.536 2.599 18.952 18.952 0 007.187 1.42 19.204 19.204 0 0013.559-5.65A19.273 19.273 0 0080.23 71c.003-2.63-.537-5.23-1.588-7.64zm-17.605-7.71c2.213 0 4.4.484 6.407 1.42-.49.212-1.004.36-1.53.44a8.117 8.117 0 00-4.58 2.3 8.142 8.142 0 00-2.296 4.587 4.263 4.263 0 01-1.252 2.566 4.25 4.25 0 01-2.59 1.197 8.117 8.117 0 00-4.579 2.3 8.143 8.143 0 00-2.295 4.587 4.135 4.135 0 01-1.12 2.47 15.36 15.36 0 01.906-14.768 15.32 15.32 0 015.557-5.23 15.288 15.288 0 017.386-1.898l-.014.029zM49.314 80.94c.17-.156.34-.298.51-.469a7.787 7.787 0 002.297-4.586 4.149 4.149 0 011.233-2.585 4.009 4.009 0 012.566-1.22 8.117 8.117 0 004.58-2.3 8.142 8.142 0 002.295-4.588 4.15 4.15 0 011.233-2.712 4.065 4.065 0 012.594-1.179 7.762 7.762 0 004.252-2.03 14.915 14.915 0 013.346 3.947c-.054.073-.116.14-.185.2a4.066 4.066 0 01-2.565 1.249 8.089 8.089 0 00-4.585 2.294 8.113 8.113 0 00-2.29 4.593c-.1.977-.534 1.89-1.23 2.584a4.249 4.249 0 01-2.583 1.221 8.16 8.16 0 00-4.598 2.296 8.184 8.184 0 00-2.32 4.591 4.464 4.464 0 01-.694 1.946 15.442 15.442 0 01-3.856-3.252zm11.723 5.481a15.34 15.34 0 01-4.252-.596c.473-.883.78-1.846.907-2.84a4.25 4.25 0 013.799-3.806 8.117 8.117 0 004.588-2.295 8.142 8.142 0 002.3-4.592c.1-.975.532-1.886 1.224-2.58a4.249 4.249 0 012.575-1.225 8.086 8.086 0 003.63-1.42 15.39 15.39 0 01-2.663 13.272 15.344 15.344 0 01-5.357 4.413 15.315 15.315 0 01-6.751 1.598v.071z"/>
</svg>
