<svg xmlns="http://www.w3.org/2000/svg" width="229" height="129" fill="none" viewBox="0 0 229 129">
  <path fill="#515151" d="M71.258 54.502h3.865v18.641h-3.865v-18.64zM77.287 66.757a6.78 6.78 0 011.142-3.766 6.764 6.764 0 016.954-2.873 6.76 6.76 0 013.462 1.864 6.775 6.775 0 011.441 7.394 6.77 6.77 0 01-2.508 3.031 6.755 6.755 0 01-3.767 1.123 6.664 6.664 0 01-4.784-1.97 6.685 6.685 0 01-1.94-4.803zm9.686 0a2.944 2.944 0 00-1.865-2.661 2.932 2.932 0 00-3.174.686 2.942 2.942 0 002.102 4.994 2.856 2.856 0 002.736-1.863c.137-.369.197-.762.176-1.156h.025zM106.024 60.372v12.139c0 4.283-3.349 6.102-6.736 6.102a6.432 6.432 0 01-6.042-3.096l3.26-1.884a2.927 2.927 0 002.91 1.613 2.571 2.571 0 002.715-1.621c.138-.355.196-.735.171-1.114v-1.174a4.546 4.546 0 01-3.723 1.651 6.436 6.436 0 01-4.554-1.889 6.455 6.455 0 010-9.122 6.436 6.436 0 014.554-1.889 4.54 4.54 0 013.723 1.651v-1.29l3.722-.077zm-3.722 6.127a3.091 3.091 0 10-5.958 1.024 3.095 3.095 0 002.866 1.944 2.883 2.883 0 003.092-2.968zM108.201 66.757a6.777 6.777 0 014.178-6.258 6.753 6.753 0 017.371 1.474 6.782 6.782 0 011.458 7.385 6.771 6.771 0 01-6.257 4.172 6.671 6.671 0 01-4.797-1.965 6.699 6.699 0 01-1.953-4.808zm9.687 0a2.94 2.94 0 00-3.561-2.796 2.932 2.932 0 00-2.262 2.336 2.945 2.945 0 001.272 2.995 2.934 2.934 0 001.627.484 2.855 2.855 0 002.735-1.863 2.88 2.88 0 00.176-1.156h.013zM123.491 56.953a2.299 2.299 0 011.416-2.12 2.288 2.288 0 012.498.497 2.3 2.3 0 01-.347 3.533 2.29 2.29 0 01-1.274.387 2.318 2.318 0 01-2.293-2.297zm.374 3.419h3.864v12.771h-3.864V60.372zM144.268 66.757a6.455 6.455 0 01-3.695 6.167 6.434 6.434 0 01-2.449.606 4.786 4.786 0 01-3.865-1.56v6.307h-3.864V60.372h3.864v1.2a4.78 4.78 0 013.865-1.548 6.432 6.432 0 014.464 2.092 6.442 6.442 0 011.68 4.641zm-3.864 0A3.052 3.052 0 00138.471 64a3.034 3.034 0 00-3.287.715 3.048 3.048 0 00.509 4.663c.499.33 1.085.505 1.684.502a2.911 2.911 0 003.027-3.122zM156.029 69.312c0 2.94-2.576 4.192-5.307 4.192a5.587 5.587 0 01-5.488-3.044l3.324-1.884a2.088 2.088 0 002.151 1.51c.914 0 1.378-.284 1.378-.8 0-1.406-6.273-.658-6.273-5.083 0-2.786 2.344-4.18 4.998-4.18a5.584 5.584 0 015.049 2.723l-3.323 1.754a1.885 1.885 0 00-1.713-1.122c-.67 0-1.069.258-1.069.71 0 1.47 6.273.502 6.273 5.224zM170.031 60.372v12.771h-3.865v-1.2a4.392 4.392 0 01-3.632 1.587c-2.576 0-4.779-1.845-4.779-5.289v-7.869h3.864v7.288a2.124 2.124 0 00.579 1.677 2.112 2.112 0 001.65.645c1.391 0 2.37-.825 2.37-2.58v-7.03h3.813zM191.928 65.3v7.843h-3.864v-7.508c0-1.29-.605-2.09-1.829-2.09s-1.997.89-1.997 2.4v7.198h-3.864v-7.508c0-1.29-.605-2.09-1.829-2.09s-1.997.89-1.997 2.4v7.198h-3.864V60.372h3.864v1.174a3.943 3.943 0 013.427-1.522 3.767 3.767 0 013.336 1.677 4.195 4.195 0 013.697-1.677c3.014 0 4.92 2.09 4.92 5.276zM48.24 51.148v-5.482H30.979v37.668h17.26v-5.483a13.322 13.322 0 01-9.426-3.91 13.361 13.361 0 010-18.882 13.322 13.322 0 019.427-3.91zM48.24 51.148v26.703c3.536 0 6.927-1.406 9.427-3.91a13.361 13.361 0 000-18.882 13.322 13.322 0 00-9.427-3.91zM195.174 60.295a2.836 2.836 0 002.834-2.838 2.836 2.836 0 00-2.834-2.838 2.836 2.836 0 00-2.834 2.838 2.836 2.836 0 002.834 2.838z"/>
</svg>
