<svg xmlns="http://www.w3.org/2000/svg" width="229" height="129" fill="none" viewBox="0 0 229 129">
  <path fill="#515151" d="M114.247 71.433h-6.595V53.775h6.595v17.658zm-5.951-.646h5.307V54.42h-5.307v16.367zm15.128.645h-6.462V53.776h13.502a8.092 8.092 0 015.428 1.532 5.941 5.941 0 011.905 4.924 6.282 6.282 0 01-1.403 4.354c-1.181 1.357-3.147 2.056-5.841 2.08-.679.019-5.766 0-7.125 0l-.004 4.767zm-5.822-.645h5.178v-4.773h.323c.066 0 6.67.021 7.434 0 2.511-.021 4.315-.644 5.37-1.861a5.67 5.67 0 001.237-3.923 5.356 5.356 0 00-1.675-4.429 7.496 7.496 0 00-5.014-1.382h-12.849l-.004 16.368zm11.494-8.088h-6.36v-4.806h6.402a2.716 2.716 0 012.448.938c.268.447.395.966.363 1.487.024.484-.08.965-.303 1.396a2.783 2.783 0 01-2.55.98v.005zm-5.716-.645h5.716c1.056 0 1.71-.22 2-.675.16-.33.232-.695.21-1.061a2.003 2.003 0 00-.24-1.107l-.007-.012c-.307-.451-.916-.661-1.921-.661h-5.758v3.516zm26.171 9.639c-5.784 0-9.236-1.438-10.551-4.396a7.672 7.672 0 01-.435-1.773l-.057-.371h6.881l.045.27c.053.276.17.535.34.757.272.328 1.179.88 4.188.88 3.617 0 3.617-.635 3.617-.977 0-.577-.419-.774-3.368-1.089l-.561-.053c-1.11-.104-2.514-.237-3.156-.293-5.41-.49-7.825-2.173-7.825-5.456 0-3.449 4.11-5.676 10.472-5.676 5.19 0 8.534 1.37 9.937 4.075.333.629.556 1.31.661 2.015l.045.362h-6.889l-.028-.291a1.105 1.105 0 00-.279-.612c-.257-.346-1.071-.917-3.599-.917-3.103 0-3.53.397-3.53.826 0 .571.98.774 4.122 1.11 1.31.107 3.416.324 4.137.412 4.536.493 6.559 2.135 6.559 5.326.002 2.677-1.86 5.871-10.726 5.871zm-10.291-5.895c.065.425.176.842.331 1.243 1.198 2.695 4.457 4.007 9.96 4.007 4.601 0 10.087-.903 10.087-5.226 0-2.829-1.79-4.23-5.988-4.685-.721-.088-2.815-.303-4.122-.412-3.349-.363-4.711-.557-4.711-1.751 0-1.236 1.467-1.471 4.175-1.471 2.14 0 3.522.387 4.108 1.167.16.193.281.414.355.653h5.583a5.815 5.815 0 00-.528-1.433c-1.288-2.476-4.435-3.73-9.366-3.73-5.97 0-9.828 1.976-9.828 5.032 0 2.915 2.165 4.355 7.238 4.814.644.055 2.046.188 3.159.294l.565.053c2.739.289 3.948.47 3.948 1.73 0 1.357-1.563 1.623-4.261 1.623-2.497 0-4.073-.376-4.683-1.115a2.39 2.39 0 01-.417-.793h-5.605zm33.254 5.873c-6.724 0-10.433-2.723-10.433-7.669V53.775h6.507v10.227c0 1.696 1.516 2.67 4.158 2.67 2.525 0 4.093-1.016 4.093-2.648v-10.25h6.44v10.77c.007 4.53-3.921 7.127-10.768 7.127h.003zm-9.789-17.251v9.582c0 6.112 6.129 7.024 9.789 7.024 3.785 0 10.132-.842 10.132-6.482V54.42h-5.153v9.604c0 2-1.86 3.292-4.736 3.292-3.007 0-4.803-1.238-4.803-3.314V54.42h-5.229zm47.847 17.013h-6.142V63.46l-3.483 7.973h-5.357l-3.447-7.957v7.957h-6.164V53.775h8.108l4.212 9.736 4.415-9.736h7.866l-.008 17.658zm-5.498-.646h4.854V54.42h-6.804l-4.846 10.68-4.619-10.68h-7.041v16.367h4.876V60.372l4.508 10.42h4.509l4.556-10.404.007 10.4zm-180.53-16.69h-5.866V71.11h16.21v-4.53H24.544V54.098zm22.184-.387c-7.488 0-11.426 3.554-11.426 8.772 0 5.896 4.134 8.886 11.426 8.886 8.027 0 11.404-3.468 11.404-8.886 0-5.501-3.81-8.774-11.404-8.774v.002zm-.022 4.421c.51-.002 1.02.028 1.525.09l-6.558 6.567a5.219 5.219 0 01-.443-2.235c0-2.669 1.342-4.424 5.476-4.424v.002zm.022 8.886c-.491.002-.982-.026-1.47-.083l6.57-6.579c.298.692.441 1.44.418 2.193 0 2.597-1.236 4.466-5.518 4.466v.003zm23.026-2.322h6.038c-.089.42-.274.813-.541 1.148a6.247 6.247 0 01-4.458 1.387 5.676 5.676 0 01-4.48-1.496 4.82 4.82 0 01-.822-3.055 4.71 4.71 0 01.887-3.186c.844-.954 2.272-1.366 4.372-1.366a5.952 5.952 0 013.787.976c.352.28.615.656.758 1.083h5.6a5.786 5.786 0 00-.5-2.037c-1.34-2.73-4.458-4.356-9.758-4.356-4.61 0-7.705 1.409-9.414 3.533a8.482 8.482 0 00-1.645 5.31 8.952 8.952 0 001.608 5.463c1.688 2.193 4.696 3.272 8.31 3.272 2.404.167 4.79-.507 6.752-1.907l.152 1.646h4.651V61.032H69.754v3.663zm24.5-10.988c-7.487 0-11.426 3.553-11.426 8.772 0 5.895 4.132 8.885 11.425 8.885 8.029 0 11.405-3.467 11.405-8.885 0-5.498-3.809-8.771-11.405-8.771v-.001zm-.021 4.42c.496-.001.992.027 1.485.085l-6.532 6.546a5.24 5.24 0 01-.43-2.205c-.004-2.669 1.343-4.424 5.477-4.424v-.002zm.02 8.886a12.11 12.11 0 01-1.508-.088l6.591-6.602c.31.7.459 1.462.434 2.228.003 2.594-1.229 4.463-5.517 4.463v-.001z"/>
</svg>
