<svg xmlns="http://www.w3.org/2000/svg" width="229" height="129" fill="none" viewBox="0 0 229 129">
  <path fill="#515151" d="M53.353 62.399a4.717 4.717 0 00-1.348 3.778l-.023-.023a5.61 5.61 0 01-1.619 4.434 5.593 5.593 0 01-4.427 1.621l.023.023a4.733 4.733 0 00-4.728 2.708 4.752 4.752 0 00.94 5.373 4.735 4.735 0 007.464-1.005 4.75 4.75 0 00.602-2.796l.024.024a5.612 5.612 0 011.62-4.434 5.596 5.596 0 014.427-1.622l-.025-.023a4.723 4.723 0 004.172-1.828 4.74 4.74 0 00-2.729-7.513 4.722 4.722 0 00-4.37 1.283h-.003z"/>
  <path fill="#515151" d="M43.85 69.19l-.024-.023A4.67 4.67 0 0047.6 67.82a4.685 4.685 0 001.348-3.78l.024.024a5.612 5.612 0 011.62-4.434 5.593 5.593 0 014.427-1.621l-.025-.023a4.732 4.732 0 004.73-2.705 4.751 4.751 0 00-.937-5.374 4.736 4.736 0 00-8.067 3.798l-.023-.024a5.61 5.61 0 01-1.619 4.434 5.594 5.594 0 01-4.428 1.621l.024.025a4.67 4.67 0 00-3.775 1.347 4.684 4.684 0 00-1.348 3.779l-.023-.023a5.614 5.614 0 01-1.62 4.433 5.598 5.598 0 01-4.427 1.622l.023.023a4.732 4.732 0 00-4.73 2.705 4.75 4.75 0 00.937 5.374 4.735 4.735 0 007.465-1.002 4.75 4.75 0 00.602-2.797l.025.024a5.612 5.612 0 011.619-4.434 5.593 5.593 0 014.427-1.621z"/>
  <path fill="#515151" d="M35.218 66.601a4.713 4.713 0 001.346-3.778l.024.023a5.61 5.61 0 013.656-5.735 5.587 5.587 0 012.393-.32l-.024-.023a4.73 4.73 0 004.728-2.705 4.75 4.75 0 00-.937-5.372 4.734 4.734 0 00-8.065 3.796l-.023-.023a5.613 5.613 0 01-1.62 4.434 5.594 5.594 0 01-4.427 1.622l.023.023a4.722 4.722 0 00-4.17 1.83 4.739 4.739 0 002.729 7.51 4.722 4.722 0 004.37-1.282h-.003zM75.12 53.735h3.825v18.644H75.12V53.735zM81.112 65.995a6.775 6.775 0 014.154-6.273 6.75 6.75 0 017.374 1.45 6.77 6.77 0 011.478 7.38 6.752 6.752 0 01-6.247 4.185 6.675 6.675 0 01-4.792-1.95 6.695 6.695 0 01-1.967-4.792zm9.692 0a2.941 2.941 0 00-1.867-2.656 2.93 2.93 0 00-3.17.688 2.94 2.94 0 002.104 4.988 2.859 2.859 0 002.755-1.859c.139-.37.2-.766.178-1.16zM109.877 59.61v12.126c0 4.29-3.341 6.104-6.733 6.104a6.513 6.513 0 01-6.044-3.096l3.264-1.89a2.919 2.919 0 002.908 1.609 2.538 2.538 0 002.723-1.613c.136-.357.19-.74.158-1.12v-1.167a4.528 4.528 0 01-3.724 1.66 6.477 6.477 0 01-4.45-1.97 6.495 6.495 0 010-9.033 6.477 6.477 0 014.45-1.97 4.524 4.524 0 013.724 1.66v-1.303l3.724.003zm-3.723 6.128a3.097 3.097 0 00-1.818-2.95 3.087 3.087 0 00-4.293 2.172 3.1 3.1 0 001.294 3.217 3.09 3.09 0 001.732.528 2.877 2.877 0 002.2-.798 2.898 2.898 0 00.885-2.169zM112.044 65.995a6.766 6.766 0 018.06-6.669 6.757 6.757 0 015.325 5.312 6.775 6.775 0 01-2.869 6.956 6.752 6.752 0 01-3.758 1.143 6.675 6.675 0 01-4.792-1.95 6.703 6.703 0 01-1.966-4.792zm9.691 0a2.934 2.934 0 00-5.817-.462 2.94 2.94 0 002.884 3.482 2.86 2.86 0 002.933-3.02zM127.345 56.187a2.303 2.303 0 011.417-2.124 2.293 2.293 0 013.13 1.676 2.296 2.296 0 01-.976 2.36 2.293 2.293 0 01-1.275.387 2.318 2.318 0 01-2.296-2.299zm.387 3.423h3.827v12.77h-3.833l.006-12.77zM148.078 65.995a6.422 6.422 0 01-3.662 6.136 6.404 6.404 0 01-2.434.606 4.776 4.776 0 01-3.798-1.559v6.31h-3.826V59.61h3.826v1.2a4.784 4.784 0 013.798-1.558 6.39 6.39 0 014.449 2.102 6.426 6.426 0 011.647 4.641zm-3.826 0a3.046 3.046 0 00-1.925-2.753 3.033 3.033 0 00-4.091 2.265 3.043 3.043 0 001.304 3.097c.498.33 1.081.507 1.678.507a2.913 2.913 0 003.034-3.116zM159.883 68.548c0 2.937-2.549 4.189-5.303 4.189a5.583 5.583 0 01-5.483-3.04l3.314-1.89a2.098 2.098 0 002.164 1.507c.917 0 1.377-.28 1.377-.79 0-1.407-6.274-.665-6.274-5.083 0-2.785 2.347-4.189 4.999-4.189a5.571 5.571 0 014.972 2.732l-3.264 1.763a1.857 1.857 0 00-1.708-1.124c-.664 0-1.072.258-1.072.715.005 1.456 6.278.485 6.278 5.21zM173.858 59.61v12.77h-3.826v-1.2a4.358 4.358 0 01-3.645 1.558c-2.577 0-4.766-1.838-4.766-5.29V59.61h3.825v7.278a2.104 2.104 0 001.324 2.18c.284.112.59.16.894.142 1.403 0 2.372-.817 2.372-2.63v-6.966l3.822-.004zM195.795 64.539v7.84h-3.826V64.87c0-1.277-.612-2.093-1.835-2.093-1.276 0-1.991.893-1.991 2.4v7.202h-3.824V64.87c0-1.277-.612-2.093-1.837-2.093-1.275 0-1.989.893-1.989 2.4v7.202h-3.826V59.61h3.826v1.173a3.917 3.917 0 013.418-1.531 3.787 3.787 0 013.34 1.685 4.201 4.201 0 013.698-1.685c2.928.001 4.846 2.095 4.846 5.288zM199.03 59.53a2.841 2.841 0 002.839-2.842 2.841 2.841 0 00-2.839-2.843 2.841 2.841 0 00-2.839 2.843 2.841 2.841 0 002.839 2.843z"/>
</svg>
