<svg xmlns="http://www.w3.org/2000/svg" width="251" height="142" fill="none" viewBox="0 0 251 142">
  <path fill="#515151" d="M91.86 70.339l-.282.06 8.742 8.754v23.797h-7.482l-8.802-8.814h7.482V70.34h-7.482v-7.492h7.482V39.05l8.802 8.814v14.983h-8.802v7.492h.341zM115.283 70.339l8.802 8.814V71.66l-8.802-8.814v7.492z"/>
  <path fill="#515151" d="M91.578 70.399l.281-.06h23.424l8.802 8.814H100.32l-8.742-8.754zM84.037 70.339H60.27l8.802 8.814h14.963v-8.814zM132.265 45.02h3.65v11.358h6.269v3.078h-9.919V45.02zM148.812 59.765c-1.224 0-2.296-.22-3.218-.66-.92-.455-1.636-1.074-2.144-1.86-.495-.798-.743-1.713-.743-2.746 0-1.032.248-1.94.743-2.726.508-.798 1.224-1.418 2.144-1.858.922-.454 1.994-.682 3.218-.682s2.296.228 3.217.682c.921.44 1.628 1.06 2.125 1.858.507.785.763 1.694.763 2.726 0 1.033-.256 1.948-.763 2.747-.497.785-1.204 1.404-2.125 1.858-.921.441-1.993.661-3.217.661zm0-2.829c.729 0 1.306-.213 1.733-.64.439-.44.659-1.04.659-1.797 0-.757-.22-1.349-.659-1.776-.427-.44-1.004-.66-1.733-.66-.729 0-1.313.22-1.753.66-.427.427-.639 1.02-.639 1.776 0 .758.212 1.356.639 1.797.44.427 1.024.64 1.753.64zM161.733 64.205c-.659 0-1.326-.062-1.999-.186a8.169 8.169 0 01-1.712-.495v-2.52c1.086.468 2.323.703 3.711.703 1.004 0 1.726-.207 2.166-.62.453-.413.68-1.019.68-1.817v-.6c-.398.345-.893.613-1.483.806a5.84 5.84 0 01-1.858.29c-1.043 0-1.965-.221-2.762-.662a4.793 4.793 0 01-1.878-1.858c-.439-.799-.659-1.714-.659-2.747 0-1.046.22-1.968.659-2.767a4.518 4.518 0 011.857-1.838c.797-.44 1.711-.66 2.742-.66 1.417 0 2.585.433 3.507 1.3v-.99h3.506v9.23c0 1.721-.529 3.056-1.589 4.006-1.045.95-2.674 1.425-4.888 1.425zm.413-7.248a2.68 2.68 0 001.506-.434c.439-.289.749-.674.927-1.156v-1.735a2.32 2.32 0 00-.948-1.136 2.645 2.645 0 00-1.485-.433c-.742 0-1.34.22-1.794.66-.454.427-.681 1.012-.681 1.756 0 .757.227 1.363.681 1.817.454.44 1.052.66 1.794.66zM175.235 59.765c-1.224 0-2.298-.22-3.218-.66-.922-.455-1.636-1.074-2.145-1.86-.495-.798-.742-1.713-.742-2.746 0-1.032.247-1.94.742-2.726.509-.798 1.223-1.418 2.145-1.858.92-.454 1.994-.682 3.218-.682s2.294.228 3.217.682c.921.44 1.628 1.06 2.123 1.858.509.785.765 1.694.765 2.726 0 1.033-.256 1.948-.765 2.747-.495.785-1.202 1.404-2.123 1.858-.923.441-1.993.661-3.217.661zm0-2.829c.729 0 1.304-.213 1.731-.64.441-.44.661-1.04.661-1.797 0-.757-.22-1.349-.661-1.776-.427-.44-1.002-.66-1.731-.66-.729 0-1.313.22-1.754.66-.426.427-.639 1.02-.639 1.776 0 .758.213 1.356.639 1.797.441.427 1.025.64 1.754.64zM132.265 64.768h3.65v14.435h-3.65V64.768zM137.763 69.29h3.505v.992c.921-.867 2.091-1.301 3.506-1.301 1.031 0 1.946.22 2.743.66a4.517 4.517 0 011.856 1.839c.44.784.66 1.7.66 2.746 0 1.033-.22 1.955-.66 2.767a4.649 4.649 0 01-1.856 1.859c-.783.44-1.697.66-2.743.66-.66 0-1.291-.102-1.897-.309-.591-.193-1.086-.461-1.485-.805v5.328h-3.629V69.29zm6.063 7.394c.743 0 1.34-.22 1.794-.661.453-.44.68-1.04.68-1.797 0-.757-.227-1.349-.68-1.776-.454-.44-1.051-.66-1.794-.66-.551 0-1.045.144-1.485.433-.44.276-.756.654-.949 1.136v1.755c.193.482.509.868.949 1.157.44.275.934.413 1.485.413zM155.444 79.513c-.797 0-1.629-.083-2.494-.248-.867-.151-1.554-.371-2.062-.66V75.94c.563.33 1.237.606 2.019.826.799.207 1.528.31 2.187.31.481 0 .832-.034 1.052-.103.22-.069.329-.207.329-.413a.443.443 0 00-.227-.392c-.137-.11-.398-.22-.782-.33a27.693 27.693 0 00-1.299-.393c-.84-.248-1.499-.503-1.981-.764-.481-.262-.839-.592-1.073-.992-.232-.399-.35-.901-.35-1.507 0-1.074.419-1.872 1.258-2.395.852-.537 2.015-.806 3.486-.806.714 0 1.463.076 2.247.227.797.152 1.396.351 1.794.6v2.622c-.412-.276-.961-.503-1.649-.682a7.41 7.41 0 00-1.897-.268c-.468 0-.833.048-1.094.144-.261.083-.391.234-.391.455 0 .206.13.365.391.475.261.11.729.248 1.403.413.439.11.625.158.557.144.879.234 1.56.496 2.041.785.48.29.818.633 1.011 1.033.205.385.309.88.309 1.486 0 .95-.411 1.707-1.237 2.272-.812.55-1.994.826-3.548.826zM165.649 79.513c-1.362 0-2.386-.379-3.073-1.136-.674-.757-1.012-1.755-1.012-2.994V69.29h3.631v5.679c0 1.143.516 1.714 1.545 1.714.47 0 .895-.11 1.28-.33.385-.22.7-.544.948-.971V69.29h3.631v9.912h-3.506V78.13a4.14 4.14 0 01-1.547 1.033 5.22 5.22 0 01-1.897.35zM174.457 69.29h3.362v1.075c.411-.44.886-.778 1.422-1.012a4.035 4.035 0 011.712-.372c.743 0 1.334.11 1.774.33.454.22.817.551 1.092.992a4.36 4.36 0 011.506-.97 4.837 4.837 0 011.794-.352c1.306 0 2.234.337 2.785 1.012.55.66.825 1.618.825 2.87v6.34h-3.466V73.38c0-.55-.103-.95-.309-1.198-.206-.248-.55-.372-1.031-.372-.618 0-1.12.22-1.504.661.012.234.019.592.019 1.074v5.658h-3.464v-5.968c0-.51-.091-.874-.268-1.094-.179-.22-.495-.33-.949-.33-.702 0-1.307.392-1.815 1.176v6.216h-3.485v-9.912zM132.78 85.979h5.341c1.512 0 2.688.358 3.527 1.074.852.716 1.279 1.776 1.279 3.18 0 1.418-.42 2.478-1.258 3.18-.839.702-2.022 1.053-3.548 1.053h-3.732v5.948h-1.609V85.979zm5.218 7.124c1.031 0 1.843-.206 2.433-.62.592-.426.887-1.176.887-2.25 0-1.088-.295-1.838-.887-2.25-.59-.428-1.402-.641-2.433-.641h-3.609v5.761h3.609zM144.984 85.153h1.589v15.261h-1.589V85.153zM153.457 100.723c-1.32 0-2.338-.357-3.053-1.073-.702-.716-1.05-1.673-1.05-2.87V90.5h1.586v6.36c0 1.735.901 2.603 2.702 2.603.757 0 1.416-.165 1.981-.496.576-.33 1.092-.853 1.546-1.57v-6.897h1.588v9.913h-1.547v-1.487c-.894 1.198-2.144 1.796-3.753 1.796zM165.084 100.723a8.3 8.3 0 01-2.083-.289c-.743-.179-1.32-.406-1.733-.681V98.41a7.354 7.354 0 001.796.764c.686.193 1.345.289 1.979.289.852 0 1.464-.117 1.835-.351.386-.248.577-.613.577-1.095 0-.371-.082-.66-.246-.867-.166-.22-.44-.413-.826-.578-.384-.165-.982-.358-1.794-.578-.798-.22-1.436-.448-1.917-.682-.468-.248-.825-.558-1.073-.93-.249-.37-.37-.846-.37-1.424 0-.895.355-1.576 1.07-2.045.729-.481 1.692-.722 2.887-.722.647 0 1.253.062 1.816.186.577.11 1.059.268 1.443.475v1.342c-.398-.22-.879-.393-1.443-.516a7.368 7.368 0 00-1.753-.207c-.797 0-1.403.117-1.815.351-.413.234-.619.613-.619 1.136 0 .358.07.633.206.826.152.193.42.372.805.537.399.151 1.031.344 1.898.578 1.236.344 2.096.75 2.576 1.218.495.455.744 1.088.744 1.9 0 .84-.329 1.5-.99 1.983-.647.482-1.637.722-2.97.722z"/>
</svg>
